grf
version=1
nRows=16
nColumns=46
inDegrees=yes
endheader
time	ground_force_1_vx	ground_force_1_vy	ground_force_1_vz	ground_force_1_px	ground_force_1_py	ground_force_1_pz	ground_moment_1_mx	ground_moment_1_my	ground_moment_1_mz	ground_force_2_vx	ground_force_2_vy	ground_force_2_vz	ground_force_2_px	ground_force_2_py	ground_force_2_pz	ground_moment_2_mx	ground_moment_2_my	ground_moment_2_mz	ground_force_3_vx	ground_force_3_vy	ground_force_3_vz	ground_force_3_px	ground_force_3_py	ground_force_3_pz	ground_moment_3_mx	ground_moment_3_my	ground_moment_3_mz	ground_force_4_vx	ground_force_4_vy	ground_force_4_vz	ground_force_4_px	ground_force_4_py	ground_force_4_pz	ground_moment_4_mx	ground_moment_4_my	ground_moment_4_mz	ground_force_5_vx	ground_force_5_vy	ground_force_5_vz	ground_force_5_px	ground_force_5_py	ground_force_5_pz	ground_moment_5_mx	ground_moment_5_my	ground_moment_5_mz
1.830000	0.000000	0.000000	0.000000	0.000000	0.000000	0.000000	0.000000	0.000000	0.000000	0.000000	0.000000	0.000000	0.000000	0.000000	0.000000	0.000000	0.000000	0.000000	0.000000	0.000000	0.000000	0.000000	0.000000	0.000000	0.000000	0.000000	0.000000	2.704367	499.053221	-43.767260	0.193186	0.000000	-1.076091	-0.000000	3.528047	0.000000	-0.919870	505.760794	37.918291	0.210418	0.000000	-1.393194	-0.000000	-2.326395	-0.000000
1.830500	0.000000	0.000000	0.000000	0.000000	0.000000	0.000000	0.000000	0.000000	0.000000	0.000000	0.000000	0.000000	0.000000	0.000000	0.000000	0.000000	0.000000	0.000000	0.000000	0.000000	0.000000	0.000000	0.000000	0.000000	0.000000	0.000000	0.000000	2.692088	499.035962	-43.754962	0.193188	0.000000	-1.076098	-0.000000	3.526534	0.000000	-0.877706	505.727199	37.906943	0.210416	0.000000	-1.393194	-0.000000	-2.322778	-0.000000
1.831000	0.000000	0.000000	0.000000	0.000000	0.000000	0.000000	0.000000	0.000000	0.000000	0.000000	0.000000	0.000000	0.000000	0.000000	0.000000	0.000000	0.000000	0.000000	0.000000	0.000000	0.000000	0.000000	0.000000	0.000000	0.000000	0.000000	0.000000	2.680513	499.016971	-43.742007	0.193189	0.000000	-1.076106	-0.000000	3.525077	0.000000	-0.835580	505.690932	37.894912	0.210414	0.000000	-1.393194	-0.000000	-2.319224	-0.000000
1.831500	0.000000	0.000000	0.000000	0.000000	0.000000	0.000000	0.000000	0.000000	0.000000	0.000000	0.000000	0.000000	0.000000	0.000000	0.000000	0.000000	0.000000	0.000000	0.000000	0.000000	0.000000	0.000000	0.000000	0.000000	0.000000	0.000000	0.000000	2.669679	498.996280	-43.728369	0.193190	0.000000	-1.076113	-0.000000	3.523681	0.000000	-0.793504	505.651985	37.882178	0.210412	0.000000	-1.393194	-0.000000	-2.315731	-0.000000
1.832000	0.000000	0.000000	0.000000	0.000000	0.000000	0.000000	0.000000	0.000000	0.000000	0.000000	0.000000	0.000000	0.000000	0.000000	0.000000	0.000000	0.000000	0.000000	0.000000	0.000000	0.000000	0.000000	0.000000	0.000000	0.000000	0.000000	0.000000	2.659610	498.973897	-43.714024	0.193192	0.000000	-1.076121	-0.000000	3.522346	0.000000	-0.751491	505.610364	37.868724	0.210411	0.000000	-1.393195	-0.000000	-2.312297	-0.000000
1.832500	0.000000	0.000000	0.000000	0.000000	0.000000	0.000000	0.000000	0.000000	0.000000	0.000000	0.000000	0.000000	0.000000	0.000000	0.000000	0.000000	0.000000	0.000000	0.000000	0.000000	0.000000	0.000000	0.000000	0.000000	0.000000	0.000000	0.000000	2.650323	498.949807	-43.698959	0.193193	0.000000	-1.076128	-0.000000	3.521071	0.000000	-0.709553	505.566087	37.854535	0.210410	0.000000	-1.393195	-0.000000	-2.308918	-0.000000
1.833000	0.000000	0.000000	0.000000	0.000000	0.000000	0.000000	0.000000	0.000000	0.000000	0.000000	0.000000	0.000000	0.000000	0.000000	0.000000	0.000000	0.000000	0.000000	0.000000	0.000000	0.000000	0.000000	0.000000	0.000000	0.000000	0.000000	0.000000	2.641826	498.923995	-43.683170	0.193195	0.000000	-1.076136	-0.000000	3.519855	0.000000	-0.667698	505.519187	37.839597	0.210408	0.000000	-1.393195	-0.000000	-2.305591	-0.000000
1.833500	0.000000	0.000000	0.000000	0.000000	0.000000	0.000000	0.000000	0.000000	0.000000	0.000000	0.000000	0.000000	0.000000	0.000000	0.000000	0.000000	0.000000	0.000000	0.000000	0.000000	0.000000	0.000000	0.000000	0.000000	0.000000	0.000000	0.000000	2.634129	498.896452	-43.666660	0.193196	0.000000	-1.076144	-0.000000	3.518697	0.000000	-0.625935	505.469705	37.823895	0.210407	0.000000	-1.393195	-0.000000	-2.302314	-0.000000
1.834000	0.000000	0.000000	0.000000	0.000000	0.000000	0.000000	0.000000	0.000000	0.000000	0.000000	0.000000	0.000000	0.000000	0.000000	0.000000	0.000000	0.000000	0.000000	0.000000	0.000000	0.000000	0.000000	0.000000	0.000000	0.000000	0.000000	0.000000	2.627240	498.867184	-43.649437	0.193197	0.000000	-1.076151	-0.000000	3.517596	0.000000	-0.584275	505.417690	37.807419	0.210406	0.000000	-1.393195	-0.000000	-2.299084	-0.000000
1.834500	0.000000	0.000000	0.000000	0.000000	0.000000	0.000000	0.000000	0.000000	0.000000	0.000000	0.000000	0.000000	0.000000	0.000000	0.000000	0.000000	0.000000	0.000000	0.000000	0.000000	0.000000	0.000000	0.000000	0.000000	0.000000	0.000000	0.000000	2.621174	498.836224	-43.631511	0.193199	0.000000	-1.076159	-0.000000	3.516551	0.000000	-0.542732	505.363202	37.790167	0.210405	0.000000	-1.393195	-0.000000	-2.295895	-0.000000
1.835000	0.000000	0.000000	0.000000	0.000000	0.000000	0.000000	0.000000	0.000000	0.000000	0.000000	0.000000	0.000000	0.000000	0.000000	0.000000	0.000000	0.000000	0.000000	0.000000	0.000000	0.000000	0.000000	0.000000	0.000000	0.000000	0.000000	0.000000	2.615951	498.803627	-43.612890	0.193200	0.000000	-1.076167	-0.000000	3.515563	0.000000	-0.501327	505.306300	37.772147	0.210404	0.000000	-1.393194	-0.000000	-2.292744	-0.000000
1.835500	0.000000	0.000000	0.000000	0.000000	0.000000	0.000000	0.000000	0.000000	0.000000	0.000000	0.000000	0.000000	0.000000	0.000000	0.000000	0.000000	0.000000	0.000000	0.000000	0.000000	0.000000	0.000000	0.000000	0.000000	0.000000	0.000000	0.000000	2.611596	498.769460	-43.593580	0.193201	0.000000	-1.076175	-0.000000	3.514633	0.000000	-0.460081	505.247044	37.753376	0.210404	0.000000	-1.393194	-0.000000	-2.289622	-0.000000
1.836000	0.000000	0.000000	0.000000	0.000000	0.000000	0.000000	0.000000	0.000000	0.000000	0.000000	0.000000	0.000000	0.000000	0.000000	0.000000	0.000000	0.000000	0.000000	0.000000	0.000000	0.000000	0.000000	0.000000	0.000000	0.000000	0.000000	0.000000	2.608140	498.733796	-43.573584	0.193202	0.000000	-1.076182	-0.000000	3.513763	0.000000	-0.419022	505.185492	37.733879	0.210403	0.000000	-1.393194	-0.000000	-2.286522	-0.000000
1.836500	0.000000	0.000000	0.000000	0.000000	0.000000	0.000000	0.000000	0.000000	0.000000	0.000000	0.000000	0.000000	0.000000	0.000000	0.000000	0.000000	0.000000	0.000000	0.000000	0.000000	0.000000	0.000000	0.000000	0.000000	0.000000	0.000000	0.000000	2.605613	498.696692	-43.552908	0.193204	0.000000	-1.076190	-0.000000	3.512955	0.000000	-0.378174	505.121708	37.713684	0.210403	0.000000	-1.393193	-0.000000	-2.283435	-0.000000
1.837000	0.000000	0.000000	0.000000	0.000000	0.000000	0.000000	0.000000	0.000000	0.000000	0.000000	0.000000	0.000000	0.000000	0.000000	0.000000	0.000000	0.000000	0.000000	0.000000	0.000000	0.000000	0.000000	0.000000	0.000000	0.000000	0.000000	0.000000	2.604039	498.658194	-43.531557	0.193205	0.000000	-1.076197	-0.000000	3.512209	0.000000	-0.337557	505.055762	37.692824	0.210402	0.000000	-1.393193	-0.000000	-2.280353	-0.000000
1.837500	0.000000	0.000000	0.000000	0.000000	0.000000	0.000000	0.000000	0.000000	0.000000	0.000000	0.000000	0.000000	0.000000	0.000000	0.000000	0.000000	0.000000	0.000000	0.000000	0.000000	0.000000	0.000000	0.000000	0.000000	0.000000	0.000000	0.000000	2.603432	498.618340	-43.509539	0.193207	0.000000	-1.076205	-0.000000	3.511525	0.000000	-0.297185	504.987736	37.671330	0.210402	0.000000	-1.393192	-0.000000	-2.277269	-0.000000
